<svg width="24" height="24" viewBox="0 0 32 32" fill="#eaeaea" xmlns="http://www.w3.org/2000/svg" class=" uk-svg">
  <path d="M22.3639 29.9138C22.3639 29.823 22.117 29.6491 21.7041 29.3607C20.8625 28.768 19.4559 27.7921 18.6973 26.4586C18.1465 25.4985 17.8316 24.4212 17.7787 23.3155C17.7709 22.6811 17.8372 22.048 17.9762 21.4289C18.0751 20.9733 18.1411 20.5111 18.1738 20.046C18.1916 19.5838 18.2074 19.0899 18.2093 18.6118L18.5294 18.5703L18.5412 18.0231L18.5195 17.9954V17.3316C18.4839 17.2724 18.4523 17.2269 18.4227 17.1835L18.6203 16.9583V16.9109L18.5985 16.8457L19.4184 16.0159L19.4322 15.9211C19.3349 15.7332 19.1854 15.5775 19.0015 15.4727H18.879L18.0493 16.3241L17.9802 16.2886H17.9407L17.7253 16.4861C17.5365 16.3586 17.3233 16.2719 17.0991 16.2313C17.201 16.1489 17.2774 16.0392 17.3194 15.915C17.3614 15.7908 17.3672 15.6573 17.3362 15.53C17.3234 15.4273 17.2849 15.3296 17.224 15.246C17.1632 15.1624 17.0822 15.0956 16.9885 15.0519L17.3836 14.72C16.8363 10.7768 16.8363 7.75623 17.3836 3.93949L16.9885 3.60563C17.0803 3.55968 17.1606 3.4935 17.2232 3.41206C17.2858 3.33062 17.3292 3.23605 17.35 3.13545C17.3694 3.03235 17.367 2.92631 17.3428 2.82421C17.3187 2.72212 17.2733 2.62624 17.2097 2.54279C20.2165 2.48945 21.9392 2.41043 22.3718 1.44439C22.3125 1.26264 19.7206 1.16387 17.2749 1.16387L17.1267 0.176098H17.0339L16.9885 0.0141038C16.676 -0.00470128 16.3626 -0.00470128 16.0501 0.0141038L16.0224 0.146465H15.9316L15.7814 1.13423C13.3238 1.13423 10.7319 1.23103 10.6667 1.41476C11.1014 2.3808 12.824 2.46179 15.8288 2.51513C15.765 2.59843 15.7197 2.69437 15.6958 2.79656C15.672 2.89875 15.6702 3.00485 15.6905 3.10779C15.7116 3.20803 15.7551 3.30221 15.8177 3.38329C15.8803 3.46437 15.9604 3.53025 16.0521 3.57599L15.657 3.90986C16.1982 7.75623 16.1982 10.7748 15.657 14.7081L16.0521 15.04C15.9606 15.0808 15.8804 15.143 15.8181 15.2215C15.7559 15.2999 15.7135 15.3921 15.6945 15.4904C15.6642 15.6178 15.6704 15.7511 15.7123 15.8752C15.7542 15.9992 15.8302 16.1089 15.9316 16.1918C15.707 16.2322 15.4936 16.3197 15.3053 16.4486L15.09 16.251H15.0643C15.0434 16.1203 14.9725 16.0027 14.8667 15.9231C14.8238 15.8889 14.7742 15.8641 14.7212 15.8501C14.6681 15.8362 14.6127 15.8335 14.5586 15.8421C14.3177 15.966 14.1211 16.1612 13.9955 16.4012C13.9913 16.5201 14.0311 16.6365 14.1073 16.7279C14.1835 16.8194 14.2907 16.8796 14.4084 16.897V16.9306L14.606 17.1558C14.5763 17.1973 14.5467 17.2428 14.5092 17.302V17.9855L14.4894 18.0112L14.4914 18.5585L14.8134 18.6019C14.8134 19.08 14.8292 19.5719 14.849 20.0342C14.8798 20.4995 14.9458 20.9618 15.0465 21.4171C15.1836 22.0364 15.2499 22.6694 15.2441 23.3037C15.1949 24.4133 14.8828 25.4953 14.3333 26.4606C13.5767 27.7961 12.1603 28.7779 11.3266 29.3646C10.9157 29.6471 10.6667 29.819 10.6667 29.9119C10.6667 30.6882 11.6861 31.5792 12.3657 31.8024C12.8359 31.9368 14.7008 32 16.544 32C18.3871 32 20.2086 31.9348 20.5839 31.8024C21.2971 31.5693 22.358 30.6724 22.3639 29.9138Z">
  </path>
</svg>
